<?xml version="1.0" encoding="UTF-8"?>
<svg id="_图层_2" data-name="图层 2" xmlns="http://www.w3.org/2000/svg" xmlns:xlink="http://www.w3.org/1999/xlink" viewBox="0 0 1200 346.08">
  <defs>
    <style>
      .cls-1 {
        fill: url(#_未命名的渐变_22);
      }

      .cls-1, .cls-2, .cls-3 {
        stroke-width: 0px;
      }

      .cls-2 {
        fill: url(#_未命名的渐变_27);
      }

      .cls-3 {
        fill: url(#_未命名的渐变_22-2);
      }
    </style>
    <linearGradient id="_未命名的渐变_27" data-name="未命名的渐变 27" x1="600" y1="0" x2="600" y2="346.08" gradientUnits="userSpaceOnUse">
      <stop offset="0" stop-color="#f6e4b6"/>
      <stop offset="1" stop-color="#ffbb7e"/>
    </linearGradient>
    <linearGradient id="_未命名的渐变_22" data-name="未命名的渐变 22" x1="853.12" y1="-1.22" x2="640.51" y2="367.03" gradientUnits="userSpaceOnUse">
      <stop offset="0" stop-color="#e8af5b"/>
      <stop offset=".17" stop-color="#ea994d"/>
      <stop offset=".52" stop-color="#f06229"/>
      <stop offset=".57" stop-color="#f15a24"/>
    </linearGradient>
    <linearGradient id="_未命名的渐变_22-2" data-name="未命名的渐变 22" x1="301.57" y1="46.85" x2="184.46" y2="249.7" xlink:href="#_未命名的渐变_22"/>
  </defs>
  <g id="_图层_1-2" data-name="图层 1">
    <g>
      <rect class="cls-2" x="0" y="0" width="1200" height="346.08" rx="173.04" ry="173.04"/>
      <g>
        <path class="cls-1" d="m572.24,169.77v17.72h-31.73v64.26h-18.68v-64.26h-40.42c-.64,10.52-2.07,19.35-4.27,26.49-2.2,7.14-5.69,13.77-10.47,19.89-4.78,6.12-11.62,13.1-20.53,20.94l-14.33-14.01c8.05-6.23,14.17-11.81,18.36-16.75,4.19-4.94,7.19-10.17,9.02-15.7,1.82-5.53,3-12.48,3.54-20.86h-34.47v-17.72h34.79v-39.14h-27.86v-17.07h130.78v17.07h-25.45v39.14h31.73Zm-90.35,0h39.94v-39.14h-39.94v39.14Z"/>
        <path class="cls-1" d="m737.48,233.71l-2.9,16.27h-72.96c-11.06,0-19.81-1.26-26.25-3.78-6.44-2.52-12.56-7.33-18.36-14.42l-16.75,19.49-7.73-18.36,15.78-16.43v-41.55h-15.14v-17.39h32.05v58.78c2.9,4.83,5.93,8.48,9.1,10.95,3.17,2.47,6.9,4.16,11.19,5.07,4.29.91,9.99,1.37,17.07,1.37h74.89Zm-119.66-86.16c-2.04-3.97-5.05-9.18-9.02-15.62-3.97-6.44-7.19-11.49-9.66-15.14l13.85-8.7c4.94,7.09,11.54,17.34,19.81,30.76l-14.98,8.7Zm41.07-22.55h-20.78v-13.85h89.71v14.33l-7.89,4.99c-2.04,1.29-9.56,5.96-22.55,14.01h32.37v67.48c0,6.01-1.37,10.15-4.11,12.4-2.74,2.25-7.6,3.38-14.58,3.38h-11.92l-3.22-12.56h10.47c2.9,0,4.83-.54,5.8-1.61.97-1.07,1.45-3.22,1.45-6.44v-3.38h-21.9v21.42h-16.27v-21.42h-21.1v22.87h-16.11v-82.14h31.57l-17.07-11.43,6.12-8.05Zm16.59,43.32v-10.95h-21.1v10.95h21.1Zm-21.1,12.4v10.79h21.1v-10.79h-21.1Zm47.99-55.72h-38.49l5.48,3.54c8.05,5.15,12.4,7.95,13.04,8.38,7.51-4.19,14.17-8.16,19.97-11.92Zm-10.63,43.32h21.9v-10.95h-21.9v10.95Zm0,12.4v10.79h21.9v-10.79h-21.9Z"/>
        <path class="cls-1" d="m790.95,158.82c-7.84,5.37-16.48,10.52-25.93,15.46l-7.89-16.43c14.49-6.98,27.35-14.95,38.57-23.92,11.22-8.96,20.59-18.44,28.1-28.43h13.85c7.3,9.66,16.53,18.9,27.7,27.7,11.17,8.8,24,16.8,38.49,24l-7.89,16.59c-8.91-4.51-17.61-9.72-26.09-15.62v13.53h-78.92v-12.88Zm-28.67,45.26v-16.43h136.09v16.43h-40.75c4.29,4.73,12.51,14.17,24.64,28.35,2.58,2.79,5.42,6.07,8.54,9.82l-12.88,12.08-8.38-10.15-92.28,4.67-3.7-15.62c10.95-8.38,21.04-18.09,30.28-29.15h-41.55Zm32.69-48.15h71.67c-15.68-11.27-27.65-22.17-35.92-32.69-8.16,10.63-20.08,21.53-35.75,32.69Zm61.36,72.63c-5.05-5.9-9.13-10.57-12.24-14.01l13.21-10.47h-31.73c-4.08,5.26-8.32,10.31-12.72,15.14-4.4,4.83-8.32,8.75-11.76,11.76l55.24-2.42Z"/>
        <path class="cls-1" d="m1057.34,254.16c-19-8.48-39.84-17.45-62.49-26.9-5.26,5.8-13.18,10.9-23.76,15.3-10.58,4.4-24.13,8.16-40.67,11.27l-5.8-16.91c14.6-2.36,26.01-4.86,34.22-7.49,8.21-2.63,14.39-5.88,18.52-9.74,4.13-3.87,6.74-8.91,7.81-15.14.86-5.15,1.61-10.31,2.25-15.46h18.04c-.32,6.66-1.4,14.39-3.22,23.19l14.98,5.96c22.44,8.8,38.33,15.14,47.67,19l-7.57,16.91Zm-22.71-71.02h-77.95v37.2h-17.88v-52.83h113.38v51.21h-17.56v-35.59Zm-90.83-72.31h103.4v44.45h-103.4v-44.45Zm18.36,29.31h66.68v-13.69h-66.68v13.69Z"/>
      </g>
      <path class="cls-3" d="m374.18,88.77l-69.37-.07-68.76,80.4v-80.33h-55.48v13.86h13.88v152.83h41.6s138.13-166.69,138.13-166.69Z"/>
    </g>
  </g>
</svg>